<svg width="19" height="22" viewBox="0 0 19 22" fill="none" xmlns="http://www.w3.org/2000/svg">
<path d="M14.0539 0C12.787 0 11.5398 0.494677 10.5784 1.46221L2.03206 10.0635C-0.677454 12.7904 -0.677252 17.2271 2.03206 19.9549C4.74157 22.6818 9.15002 22.6816 11.8604 19.9549L17.558 14.2207L16.276 12.9305L10.5784 18.6647C8.56481 20.6905 5.32665 20.6903 3.31401 18.6647C1.30117 16.6382 1.30137 13.3792 3.31401 11.3536L11.8604 2.7524C13.0864 1.51854 15.05 1.51854 16.276 2.7524C17.502 3.98626 17.502 5.96252 16.276 7.19638L7.72964 15.7976C7.29037 16.2392 6.60095 16.2386 6.1628 15.7976C5.72405 15.3555 5.72465 14.6617 6.1628 14.2207L13.997 6.33625L12.715 5.04606L4.88085 12.9305C3.74556 14.0731 3.74616 15.9445 4.88085 17.0878C6.01614 18.2304 7.87559 18.2298 9.01159 17.0878L17.558 8.48656C19.4807 6.55149 19.4807 3.39728 17.558 1.46221C16.5966 0.494677 15.3209 0 14.0539 0Z" fill="#0049B7"/>
</svg>
